<svg xmlns="http://www.w3.org/2000/svg" width="20.146" height="20.148" viewBox="0 0 20.146 20.148">
  <g id="bitcoin_1_" data-name="bitcoin (1)" transform="translate(-0.004 0.001)">
    <path id="Path_728" data-name="Path 728" d="M19.848,12.511A10.071,10.071,0,1,1,12.512.3a10.072,10.072,0,0,1,7.336,12.21Z" transform="translate(0 0)" fill="#f7931a"/>
    <path id="Path_729" data-name="Path 729" d="M25.188,16.279c.2-1.34-.82-2.061-2.216-2.542l.453-1.816-1.106-.275-.441,1.768c-.29-.072-.589-.141-.885-.208l.444-1.78-1.1-.275-.453,1.815c-.241-.055-.477-.109-.706-.166v-.006l-1.524-.381-.294,1.181s.82.188.8.2a.588.588,0,0,1,.515.643L18.158,16.5a.916.916,0,0,1,.115.037l-.116-.029-.723,2.9a.4.4,0,0,1-.507.263c.011.016-.8-.2-.8-.2l-.549,1.266,1.439.359c.268.067.53.137.788.2l-.457,1.837,1.1.275L18.9,21.6c.3.082.594.157.881.229l-.451,1.809,1.105.275.457-1.833c1.885.357,3.3.213,3.9-1.492A1.94,1.94,0,0,0,23.776,17.9a1.764,1.764,0,0,0,1.411-1.623ZM22.662,19.82c-.342,1.373-2.653.631-3.4.445l.607-2.433c.749.187,3.152.557,2.8,1.989ZM23,16.259c-.312,1.249-2.235.614-2.859.459l.55-2.207C21.319,14.666,23.328,14.956,23,16.259Z" transform="translate(-10.669 -7.64)" fill="#fff"/>
  </g>
</svg>
