<svg xmlns="http://www.w3.org/2000/svg" width="30.286" height="30.286" viewBox="0 0 30.286 30.286">
  <path id="Icon_awesome-coins" data-name="Icon awesome-coins" d="M0,23.975V26.5c0,2.088,5.087,3.786,11.357,3.786s11.357-1.7,11.357-3.786V23.975C20.272,25.7,15.806,26.5,11.357,26.5S2.443,25.7,0,23.975Zm18.929-16.4c6.27,0,11.357-1.7,11.357-3.786S25.2,0,18.929,0,7.572,1.7,7.572,3.786,12.659,7.572,18.929,7.572ZM0,17.769v3.052c0,2.088,5.087,3.786,11.357,3.786s11.357-1.7,11.357-3.786V17.769c-2.443,2.011-6.915,3.052-11.357,3.052S2.443,19.781,0,17.769Zm24.607.651c3.389-.657,5.679-1.875,5.679-3.277V12.617a14.526,14.526,0,0,1-5.679,2.041ZM11.357,9.464C5.087,9.464,0,11.582,0,14.2s5.087,4.732,11.357,4.732S22.715,16.811,22.715,14.2,17.627,9.464,11.357,9.464Zm12.972,3.33c3.549-.639,5.957-1.893,5.957-3.33V6.939c-2.1,1.485-5.708,2.283-9.506,2.473A6.624,6.624,0,0,1,24.329,12.795Z" fill="#b31942"/>
</svg>
