<svg id="dogecoin" xmlns="http://www.w3.org/2000/svg" width="21.228" height="21.228" viewBox="0 0 21.228 21.228">
  <path id="Path_736" data-name="Path 736" d="M882.637,659H881.12v2.99h2.386v1.252H881.12v2.99h1.591a3.119,3.119,0,0,0,3.351-3.478C886.057,659.228,883.2,659,882.637,659Z" transform="translate(-871.768 -652.006)" fill="#c2a633"/>
  <path id="Path_737" data-name="Path 737" d="M10.614,0A10.614,10.614,0,1,0,21.228,10.614,10.614,10.614,0,0,0,10.614,0Zm.417,16.346H7.187v-5.11H5.832V9.984H7.187V4.874h3.3c.78,0,5.95-.162,5.95,5.832,0,6.093-5.4,5.64-5.4,5.64Z" fill="#c2a633"/>
</svg>
