<svg xmlns="http://www.w3.org/2000/svg" width="20.757" height="20.757" viewBox="0 0 20.757 20.757">
  <g id="litecoin" transform="translate(-0.848 -0.876)">
    <path id="Path_740" data-name="Path 740" d="M21.6,11.254A10.378,10.378,0,1,1,11.226.876,10.378,10.378,0,0,1,21.6,11.254" transform="translate(0)" fill="#bebebe"/>
    <path id="Path_741" data-name="Path 741" d="M52.149,44a8.175,8.175,0,1,1-8.175-8.175A8.175,8.175,0,0,1,52.149,44" transform="translate(-32.748 -32.749)" fill="#bebebe"/>
    <path id="Path_742" data-name="Path 742" d="M94.615,85.553l.674-2.538,1.6-.583.4-1.492-.014-.037-1.571.574,1.132-4.262H93.62l-1.48,5.562-1.236.451L90.5,84.766l1.235-.451-.872,3.278H99.4l.548-2.04H94.615" transform="translate(-83.996 -71.527)" fill="#fff"/>
  </g>
</svg>
