<svg xmlns="http://www.w3.org/2000/svg" width="44.715" height="56.432" viewBox="0 0 44.715 56.432">
  <path id="_31-Exchange" d="M23.167,52.048h5.99v2.258a3.993,3.993,0,0,0,6.208,3.324L47.74,49.38a3.994,3.994,0,0,0,0-6.645l-12.375-8.25a3.993,3.993,0,0,0-6.208,3.322v2.26h-5.99a6.049,6.049,0,0,1-5.99-5.99,2,2,0,0,0-2-2H7.194a2,2,0,0,0-2,2A18.146,18.146,0,0,0,23.167,52.048Zm0-7.987a10.1,10.1,0,0,1-9.776-7.987H9.338a14.141,14.141,0,0,0,13.829,11.98h7.987a2,2,0,0,1,2,2v4.255l12.373-8.248L33.151,37.81v4.255a2,2,0,0,1-1.995,2Zm7.987-35.94h-5.99V5.863a3.995,3.995,0,0,0-6.21-3.324L6.581,10.789a3.992,3.992,0,0,0,0,6.645l12.373,8.25a3.995,3.995,0,0,0,6.21-3.322V20.1h5.99a6.049,6.049,0,0,1,5.99,5.99,2,2,0,0,0,2,2h7.987a2,2,0,0,0,2-2A18.147,18.147,0,0,0,31.154,8.121Zm0,7.987a10.1,10.1,0,0,1,9.776,7.987h4.053a14.141,14.141,0,0,0-13.829-11.98H23.167a2,2,0,0,1-2-2V5.863L8.8,14.111l12.375,8.248V18.1a2,2,0,0,1,1.995-2Z" transform="translate(-4.802 -1.868)" fill="#3bc1ff" fill-rule="evenodd"/>
</svg>
