<svg id="wallet-icon" xmlns="http://www.w3.org/2000/svg" width="32.958" height="27.178" viewBox="0 0 32.958 27.178">
  <path id="Path_710" data-name="Path 710" d="M24.308,8.938h4.936V8.189c-.773-2.878-2.736-2.859-5.164-2.835-.4.005-.762.008-.783.008H4.847a.767.767,0,0,1,0-1.534H23.3c.545,0,.66,0,.77,0C26.142,3.8,27.956,3.785,29.243,5V4.649a3.132,3.132,0,0,0-3.12-3.12H4.651a3.132,3.132,0,0,0-3.12,3.12V22.524a3.132,3.132,0,0,0,3.12,3.12h21.47a3.132,3.132,0,0,0,3.12-3.12V19.986H24.3a5.422,5.422,0,0,1-5.41-5.41v-.233a5.412,5.412,0,0,1,5.413-5.4Zm6.467.03a2.58,2.58,0,0,1,2.183,2.546v5.794a2.687,2.687,0,0,1-2.183,2.637v2.583a4.662,4.662,0,0,1-4.651,4.651H4.651A4.662,4.662,0,0,1,0,22.529V4.651A4.662,4.662,0,0,1,4.651,0h21.47a4.662,4.662,0,0,1,4.651,4.651V8.967Zm-7.132,3.4a1.966,1.966,0,1,1-1.966,1.966,1.966,1.966,0,0,1,1.966-1.966Z" fill="#fff" fill-rule="evenodd"/>
</svg>
